<mxfile host="app.diagrams.net" modified="2023-04-14T03:30:32.514Z" agent="Mozilla/5.0 (Windows NT 10.0; Win64; x64) AppleWebKit/537.36 (KHTML, like Gecko) Chrome/111.0.0.0 Safari/537.36" version="21.1.7" etag="q_coBbln84VndKdLcSBN" type="github">
  <diagram name="第 1 页" id="DdHduJG7iGCQ0q06YF-u">
    <mxGraphModel>
      <root>
        <mxCell id="0" />
        <mxCell id="1" parent="0" />
      </root>
    </mxGraphModel>
  </diagram>
</mxfile>
